<svg xmlns="http://www.w3.org/2000/svg" style="display:none">
  <symbol id="icon-arrow-down" viewBox="0 0 48 48">
    <path fill-rule="evenodd" clip-rule="evenodd" d="M33.0603 17.9384C33.3412 18.2196 33.499 18.6009 33.499 18.9984C33.499 19.3959 33.3412 19.7771 33.0603 20.0584L25.0603 28.0584C24.7791 28.3393 24.3978 28.497 24.0003 28.497C23.6028 28.497 23.2216 28.3393 22.9403 28.0584L14.9403 20.0584C14.7929 19.921 14.6747 19.7554 14.5927 19.5714C14.5108 19.3874 14.4667 19.1888 14.4631 18.9874C14.4596 18.786 14.4966 18.5859 14.5721 18.3992C14.6475 18.2124 14.7598 18.0427 14.9022 17.9003C15.0447 17.7578 15.2143 17.6456 15.4011 17.5701C15.5879 17.4947 15.7879 17.4576 15.9894 17.4612C16.1908 17.4647 16.3894 17.5088 16.5734 17.5908C16.7574 17.6728 16.923 17.791 17.0603 17.9384L24.0003 24.8784L30.9403 17.9384C31.2216 17.6575 31.6028 17.4997 32.0003 17.4997C32.3978 17.4997 32.7791 17.6575 33.0603 17.9384Z" fill="currentColor"/>
  </symbol>

  <symbol id="icon-arrow-section" viewBox="0 0 48 48">
    <g transform="translate(4.714 0) scale(0.8571)">
      <path d="M25.0918 3C25.0918 1.34315 23.7487 0 22.0918 0C20.4349 0 19.0918 1.34315 19.0918 3H22.0918H25.0918ZM19.9705 55.1213C21.142 56.2929 23.0415 56.2929 24.2131 55.1213L43.305 36.0294C44.4766 34.8579 44.4766 32.9584 43.305 31.7868C42.1334 30.6152 40.2339 30.6152 39.0624 31.7868L22.0918 48.7574L5.12123 31.7868C3.94966 30.6152 2.05017 30.6152 0.878593 31.7868C-0.29298 32.9584 -0.29298 34.8579 0.878593 36.0294L19.9705 55.1213ZM22.0918 3H19.0918L19.0918 53H22.0918H25.0918L25.0918 3H22.0918Z" fill="currentColor"/>
    </g>
  </symbol>

  <symbol id="icon-arrow-left" viewBox="0 0 48 48" fill="none">
    <path d="M16.7437 25.554L30.2817 37.742C30.4306 37.8722 30.6137 37.9571 30.8093 37.9866C31.005 38.0161 31.2049 37.989 31.3856 37.9084C31.5663 37.8278 31.7202 37.6972 31.829 37.532C31.9378 37.3667 31.997 37.1738 31.9997 36.976V11.024C31.9974 10.8258 31.9382 10.6324 31.8293 10.4668C31.7204 10.3011 31.5663 10.1703 31.3852 10.0896C31.2041 10.009 31.0037 9.98197 30.8078 10.0118C30.6118 10.0416 30.4285 10.1271 30.2797 10.258L16.6597 22.446C16.4443 22.6463 16.2741 22.8902 16.1603 23.1614C16.0466 23.4326 15.9918 23.7249 15.9998 24.0189C16.0077 24.3129 16.0782 24.6019 16.2064 24.8665C16.3347 25.1312 16.5178 25.3656 16.7437 25.554Z" stroke="currentColor" stroke-width="3" stroke-linecap="round" stroke-linejoin="round"/>
  </symbol>

  <symbol id="icon-arrow-right" viewBox="0 0 48 48" fill="none">
    <path d="M31.2554 25.554L17.7174 37.742C17.5684 37.8722 17.3853 37.9571 17.1897 37.9866C16.9941 38.0161 16.7941 37.989 16.6134 37.9084C16.4327 37.8278 16.2788 37.6972 16.17 37.532C16.0612 37.3667 16.002 37.1738 15.9994 36.976V11.024C16.0017 10.8258 16.0608 10.6324 16.1697 10.4668C16.2786 10.3011 16.4327 10.1703 16.6138 10.0896C16.7949 10.009 16.9953 9.98197 17.1913 10.0118C17.3872 10.0416 17.5705 10.1271 17.7194 10.258L31.3394 22.446C31.5547 22.6463 31.7249 22.8902 31.8387 23.1614C31.9525 23.4326 32.0072 23.7249 31.9992 24.0189C31.9913 24.3129 31.9209 24.6019 31.7926 24.8665C31.6643 25.1312 31.4812 25.3656 31.2554 25.554Z" stroke="currentColor" stroke-width="3" stroke-linecap="round" stroke-linejoin="round"/>
  </symbol>

  <symbol id="icon-arrow-up" viewBox="0 0 48 48">
    <path fill-rule="evenodd" clip-rule="evenodd" d="M33.0603 28.0226C33.3412 27.7413 33.499 27.3601 33.499 26.9626C33.499 26.5651 33.3412 26.1838 33.0603 25.9026L25.0603 17.9026C24.7791 17.6217 24.3978 17.4639 24.0003 17.4639C23.6028 17.4639 23.2216 17.6217 22.9403 17.9026L14.9403 25.9026C14.7929 26.0399 14.6747 26.2055 14.5927 26.3895C14.5108 26.5735 14.4667 26.7721 14.4631 26.9735C14.4596 27.1749 14.4966 27.375 14.5721 27.5618C14.6475 27.7486 14.7598 27.9182 14.9022 28.0607C15.0447 28.2031 15.2143 28.3154 15.4011 28.3908C15.5879 28.4663 15.7879 28.5033 15.9894 28.4998C16.1908 28.4962 16.3894 28.4521 16.5734 28.3701C16.7574 28.2882 16.923 28.17 17.0603 28.0226L24.0003 21.0826L30.9403 28.0226C31.2216 28.3035 31.6028 28.4613 32.0003 28.4613C32.3978 28.4613 32.7791 28.3035 33.0603 28.0226Z" fill="currentColor"/>
  </symbol>

  <symbol id="icon-book" viewBox="0 0 48 48" fill="none">
    <path d="M4 39V9C4 7.67392 4.65848 6.40215 5.83058 5.46447C7.00269 4.52678 8.5924 4 10.25 4H41.5C42.163 4 42.7989 4.21071 43.2678 4.58579C43.7366 4.96086 44 5.46957 44 6V42C44 42.5304 43.7366 43.0391 43.2678 43.4142C42.7989 43.7893 42.163 44 41.5 44H10.25C8.5924 44 7.00269 43.4732 5.83058 42.5355C4.65848 41.5979 4 40.3261 4 39ZM4 39C4 37.6739 4.65848 36.4021 5.83058 35.4645C7.00269 34.5268 8.5924 34 10.25 34H44M15.55 19.6C15.024 19.1613 14.6146 18.6419 14.3465 18.0732C14.0783 17.5045 13.957 16.8982 13.9898 16.2909C14.0226 15.6836 14.2088 15.0879 14.5373 14.5398C14.8657 13.9917 15.3296 13.5025 15.9009 13.1017C16.4721 12.7009 17.139 12.3969 17.8611 12.208C18.5833 12.019 19.3459 11.9491 20.1028 12.0024C20.8596 12.0557 21.5952 12.2311 22.265 12.5181C22.9348 12.805 23.525 13.1976 24 13.672C24.4773 13.2025 25.068 12.8149 25.7369 12.5322C26.4057 12.2496 27.139 12.0778 27.8927 12.0271C28.6465 11.9764 29.4053 12.0478 30.1238 12.2371C30.8422 12.4264 31.5056 12.7297 32.0742 13.1289C32.6427 13.528 33.1048 14.0148 33.4328 14.5601C33.7608 15.1054 33.9479 15.698 33.983 16.3025C34.0181 16.907 33.9004 17.5109 33.637 18.0782C33.3736 18.6455 32.9699 19.1644 32.45 19.604L25.885 25.316C25.6508 25.5317 25.3614 25.7047 25.0364 25.8233C24.7114 25.9418 24.3584 26.0032 24.0012 26.0032C23.6441 26.0032 23.2911 25.9418 22.9661 25.8233C22.6411 25.7047 22.3517 25.5317 22.1175 25.316L15.55 19.6Z" stroke="currentColor" stroke-width="2" stroke-linecap="round" stroke-linejoin="round"/>
  </symbol>

  <symbol id="icon-cake" viewBox="0 0 48 48" fill="none">
    <path d="M32.8889 26.0347H4M32.8889 35.0174H4M13.3333 14.5818L5.80445 20.196C5.24454 20.6138 4.78956 21.1586 4.47614 21.7866C4.16272 22.4146 3.99963 23.1082 4 23.8115V41.7543C4 42.3499 4.23413 42.9211 4.65087 43.3423C5.06762 43.7634 5.63285 44 6.22222 44H41.7778C42.3671 44 42.9324 43.7634 43.3491 43.3423C43.7659 42.9211 44 42.3499 44 41.7543V22.3204C44 17.8291 38.5778 8.78803 29.6889 4.29671C29.3183 4.08234 28.8944 3.98041 28.468 4.00311C28.0416 4.02581 27.6307 4.17218 27.2844 4.42471L20.4444 9.41681M21.7778 12.5607C21.7778 15.0412 19.7879 17.0521 17.3333 17.0521C14.8787 17.0521 12.8889 15.0412 12.8889 12.5607C12.8889 10.0803 14.8787 8.06942 17.3333 8.06942C19.7879 8.06942 21.7778 10.0803 21.7778 12.5607Z" stroke="currentColor" stroke-width="2" stroke-linecap="round" stroke-linejoin="round"/>
  </symbol>

  <symbol id="icon-cook-hat" viewBox="0 0 48 48" fill="none">
    <path d="M10.6688 35.6131H37.3253M35.1039 44.5C35.6931 44.5 36.2581 44.2659 36.6747 43.8493C37.0912 43.4326 37.3253 42.8675 37.3253 42.2783V30.3921C37.3253 29.3767 38.0272 28.5169 38.9402 28.0793C40.8306 27.1773 42.3416 25.6366 43.2067 23.7289C44.0717 21.8212 44.2352 19.6692 43.6682 17.6526C43.1013 15.6361 41.8404 13.8847 40.108 12.7075C38.3756 11.5303 36.2831 11.003 34.1998 11.2186C33.3418 9.22397 31.9182 7.52455 30.1049 6.33046C28.2915 5.13638 26.1681 4.5 23.997 4.5C21.826 4.5 19.7025 5.13638 17.8892 6.33046C16.0759 7.52455 14.6522 9.22397 13.7943 11.2186C11.7119 11.0045 9.62082 11.5325 7.88969 12.7097C6.15857 13.8868 4.89856 15.6375 4.33183 17.6529C3.7651 19.6684 3.92804 21.8193 4.79192 23.7264C5.6558 25.6334 7.16515 27.1742 9.05384 28.077C9.96683 28.5169 10.6688 29.3767 10.6688 30.3898V42.2783C10.6688 42.8675 10.9028 43.4326 11.3194 43.8493C11.736 44.2659 12.301 44.5 12.8902 44.5H35.1039Z" stroke="currentColor" stroke-width="2" stroke-linecap="round" stroke-linejoin="round"/>
  </symbol>

  <symbol id="icon-folder" viewBox="0 0 48 48" fill="none">
    <path d="M4.00001 24.0023C3.99906 24.3848 4.10775 24.7596 4.31318 25.0823C4.51861 25.4049 4.81217 25.6617 5.15905 25.8224L22.3448 33.643C22.8628 33.8778 23.4249 33.9992 23.9935 33.9992C24.5621 33.9992 25.1241 33.8778 25.6421 33.643L42.7879 25.8424C43.1416 25.6833 43.4415 25.4246 43.6508 25.0978C43.8602 24.7711 43.97 24.3904 43.9669 24.0023M4.00001 34.0031C3.99906 34.3856 4.10775 34.7604 4.31318 35.083C4.51861 35.4056 4.81217 35.6625 5.15905 35.8232L22.3448 43.6438C22.8628 43.8786 23.4249 44 23.9935 44C24.5621 44 25.1241 43.8786 25.6421 43.6438L42.7879 35.8432C43.1416 35.6841 43.4415 35.4253 43.6508 35.0986C43.8602 34.7719 43.97 34.3912 43.9669 34.0031M25.6421 4.36074C25.1214 4.12302 24.5558 4 23.9835 4C23.4112 4 22.8455 4.12302 22.3248 4.36074L5.19901 12.1614C4.84441 12.3179 4.54291 12.5742 4.33126 12.8991C4.1196 13.2241 4.00691 13.6036 4.00691 13.9915C4.00691 14.3794 4.1196 14.7589 4.33126 15.0839C4.54291 15.4088 4.84441 15.6651 5.19901 15.8216L22.3448 23.6422C22.8655 23.88 23.4312 24.003 24.0035 24.003C24.5758 24.003 25.1414 23.88 25.6621 23.6422L42.8079 15.8416C43.1625 15.6851 43.464 15.4288 43.6757 15.1039C43.8873 14.7789 44 14.3994 44 14.0115C44 13.6236 43.8873 13.2441 43.6757 12.9191C43.464 12.5942 43.1625 12.3379 42.8079 12.1814L25.6421 4.36074Z" stroke="currentColor" stroke-width="2" stroke-linecap="round" stroke-linejoin="round"/>
  </symbol>

  <symbol id="icon-balance-one" viewBox="0 0 48 48" fill="none">
    <path d="M35 25C27.89 22.42 20.11 22.42 13 25L12 14C19 11 29 11 36 14L35 25Z" fill="#FE7BCF" stroke="currentColor" stroke-width="4" stroke-miterlimit="2" stroke-linecap="round" stroke-linejoin="round"/>
    <path d="M24 23L21 18" stroke="currentColor" stroke-width="4" stroke-miterlimit="2" stroke-linecap="round" stroke-linejoin="round"/>
    <path d="M42 39C42 40.6569 40.6569 42 39 42H9C7.34315 42 6 40.6569 6 39V9C6 7.34315 7.34315 6 9 6H39C40.6569 6 42 7.34315 42 9V39Z" stroke="currentColor" stroke-width="4" stroke-miterlimit="2" stroke-linecap="round" stroke-linejoin="round"/>
    <path d="M29 23.4527C25.6869 22.9324 22.3131 22.9324 19 23.4527" stroke="currentColor" stroke-width="4" stroke-miterlimit="2" stroke-linecap="round" stroke-linejoin="round"/>
  </symbol>

  <symbol id="icon-dots" viewBox="0 0 48 48">
    <path d="M14 24C14 25.0609 13.5786 26.0783 12.8284 26.8284C12.0783 27.5786 11.0609 28 10 28C8.93913 28 7.92172 27.5786 7.17157 26.8284C6.42143 26.0783 6 25.0609 6 24C6 22.9391 6.42143 21.9217 7.17157 21.1716C7.92172 20.4214 8.93913 20 10 20C11.0609 20 12.0783 20.4214 12.8284 21.1716C13.5786 21.9217 14 22.9391 14 24ZM42 24C42 25.0609 41.5786 26.0783 40.8284 26.8284C40.0783 27.5786 39.0609 28 38 28C36.9391 28 35.9217 27.5786 35.1716 26.8284C34.4214 26.0783 34 25.0609 34 24C34 22.9391 34.4214 21.9217 35.1716 21.1716C35.9217 20.4214 36.9391 20 38 20C39.0609 20 40.0783 20.4214 40.8284 21.1716C41.5786 21.9217 42 22.9391 42 24Z" fill="currentColor"/>
    <path opacity="0.5" d="M28 24C28 25.0609 27.5786 26.0783 26.8284 26.8284C26.0783 27.5786 25.0609 28 24 28C22.9391 28 21.9217 27.5786 21.1716 26.8284C20.4214 26.0783 20 25.0609 20 24C20 22.9391 20.4214 21.9217 21.1716 21.1716C21.9217 20.4214 22.9391 20 24 20C25.0609 20 26.0783 20.4214 26.8284 21.1716C27.5786 21.9217 28 22.9391 28 24Z" fill="currentColor"/>
  </symbol>

  <symbol id="icon-effects" viewBox="0 0 48 48" fill="none">
    <path d="M24.9505 42.3624L30.4162 30.3716L43.1044 26.6522L33.3381 17.772L33.7057 4.60938L22.2042 11.112L9.74304 6.69644L12.4011 19.5955L4.33203 30.0291L17.4764 31.4986L24.9505 42.3624Z" fill="#FE7BCF" stroke="currentColor" stroke-width="4" stroke-linecap="round" stroke-linejoin="round"/>
    <path d="M36.1777 36.0547L44.1777 44.0189" stroke="currentColor" stroke-width="4" stroke-linecap="round" stroke-linejoin="round"/>
  </symbol>

  <symbol id="icon-facebook" viewBox="0 0 48 48" fill="none">
    <path d="M13 20V28H19V42H27V28H33L35 20H27V16C27 14.91 27.91 14 29 14H35V6H29C23.554 6 19 10.554 19 16V20H13Z" stroke="currentColor" stroke-width="3" stroke-linecap="round" stroke-linejoin="round"/>
  </symbol>

  <symbol id="icon-instagram" viewBox="0 0 48 48" fill="none">
    <path d="M34 13H35M6 18.8C6 14.32 6 12.08 6.872 10.368C7.63898 8.86277 8.86277 7.63898 10.368 6.872C12.08 6 14.32 6 18.8 6H29.2C33.68 6 35.92 6 37.632 6.872C39.1372 7.63898 40.361 8.86277 41.128 10.368C42 12.08 42 14.32 42 18.8V29.2C42 33.68 42 35.92 41.128 37.632C40.361 39.1372 39.1372 40.361 37.632 41.128C35.92 42 33.68 42 29.2 42H18.8C14.32 42 12.08 42 10.368 41.128C8.86277 40.361 7.63898 39.1372 6.872 37.632C6 35.92 6 33.68 6 29.2V18.8Z" stroke="currentColor" stroke-width="3" stroke-linecap="round" stroke-linejoin="round"/>
    <path d="M30.9237 22.9746C31.0584 23.884 31.0127 24.8111 30.7892 25.7028C30.5656 26.5945 30.1686 27.4335 29.6209 28.1718C29.0731 28.9102 28.3853 29.5334 27.5967 30.0059C26.808 30.4783 25.9341 30.7909 25.0247 30.9256C24.1153 31.0604 23.1882 31.0147 22.2965 30.7911C21.4047 30.5676 20.5658 30.1706 19.8274 29.6228C18.3363 28.5165 17.3458 26.8632 17.0737 25.0266C16.8016 23.19 17.2702 21.3205 18.3765 19.8294C19.4827 18.3383 21.136 17.3477 22.9727 17.0756C24.8093 16.8035 26.6788 17.2721 28.1699 18.3784C29.661 19.4847 30.6516 21.138 30.9237 22.9746Z" stroke="currentColor" stroke-width="3" stroke-linecap="round" stroke-linejoin="round"/>
  </symbol>

  <symbol id="icon-edit" viewBox="0 0 48 48" fill="none">
    <path d="M36 6H44L42.064 20H36M36 6H9.00002M36 6V40C36 40.5304 35.7893 41.0391 35.4142 41.4142C35.0392 41.7893 34.5305 42 34 42H11C10.4696 42 9.96088 41.7893 9.58581 41.4142C9.21073 41.0391 9.00002 40.5304 9.00002 40L8.99902 16.5C8.99902 15.556 8.55502 14.672 7.83902 14.057C5.14802 11.75 -0.59098 6 8.99902 6M26 15H30M26 23H30M26 31H30" stroke="currentColor" stroke-width="4" stroke-linecap="round" stroke-linejoin="round"/>
  </symbol>

  <symbol id="icon-magic" viewBox="0 0 48 48">
    <path d="M45.6664 20.2344L33.8744 14.4804C33.7344 14.4104 33.6624 14.2684 33.5904 14.1264L27.7664 2.33444C26.7704 0.274444 24.2144 -0.579556 22.1524 0.414444C21.3183 0.824562 20.6437 1.49983 20.2344 2.33444L14.4104 14.1264C14.3331 14.2573 14.2374 14.3765 14.1264 14.4804L2.33444 20.3064C0.274444 21.3004 -0.579556 23.8584 0.414444 25.9184C0.824205 26.7534 1.49951 27.4287 2.33444 27.8384L14.1264 33.5904C14.2664 33.6624 14.3384 33.8044 14.4104 33.8744L20.3064 45.6664C21.3004 47.7264 23.8584 48.5804 25.9184 47.5864C26.7526 47.1763 27.4272 46.5011 27.8364 45.6664L33.5904 33.8744C33.6624 33.7344 33.8044 33.5904 33.8744 33.5904L45.6664 27.7664C47.7264 26.7704 48.5804 24.2144 47.5864 22.1544C47.2304 21.3004 46.5204 20.6624 45.6664 20.2344ZM36.9304 21.0884L31.4604 25.8484C30.3944 26.8424 29.6124 28.1204 29.3284 29.5424L27.9084 36.6444C27.8364 36.9304 27.5524 37.1444 27.2684 37.0724C27.1264 37.0724 27.0544 37.0004 26.9844 36.8584L22.2244 31.3884C21.2304 30.3224 19.9504 29.5424 18.5304 29.2564L11.4264 27.8364C11.1424 27.7664 10.9284 27.4804 11.0004 27.1964C11.0004 27.0564 11.0704 26.9844 11.2124 26.9124L16.6824 22.1524C17.7484 21.1584 18.5304 19.8804 18.8144 18.4584L20.2344 11.3564C20.3064 11.0704 20.5904 10.8564 20.8744 10.9284C20.9812 10.9462 21.0801 10.9957 21.1584 11.0704L25.9184 16.5404C26.9124 17.6064 28.1924 18.3884 29.6124 18.6724L36.7164 20.0924C37.0004 20.1644 37.2144 20.4484 37.1424 20.7324C37.1043 20.8677 37.0311 20.9905 36.9304 21.0884Z" fill="currentColor"/>
  </symbol>

  <symbol id="icon-multi-rectangle" viewBox="0 0 48 48" fill="none">
    <path d="M12 39H44V7H12V15" stroke="currentColor" stroke-width="4" stroke-linejoin="round"/>
    <path d="M8 39H32V15H8V23" stroke="currentColor" stroke-width="4" stroke-linejoin="round"/>
    <path d="M20 23H4V39H20V23Z" fill="#FE7BCF" stroke="currentColor" stroke-width="4" stroke-linejoin="round"/>
  </symbol>

  <symbol id="icon-peas" viewBox="0 0 48 48" fill="none">
    <path d="M26.9998 12C26.9998 12 33.9992 19 33.9993 28C33.9994 37 29.5552 44.2227 25.9993 43.9999C22.4435 43.7772 18.9997 36.9999 19.9998 28C20.9998 19 26.9998 12 26.9998 12Z" stroke="currentColor" stroke-width="4" stroke-linecap="round" stroke-linejoin="round"/>
    <path d="M27 11.9966C27 11.9966 28.0013 7.87189 31.0004 5.93425C33.9996 3.99661 39.8903 8.99664 39.0002 11.9966C38.1101 14.9966 34.9998 14.9966 33.9999 11.9966C33 8.99664 38.0002 5.49664 41.0002 5.93425C44.0002 6.37186 44.2571 11.1764 44.0002 13.9966C43.4992 19.4966 42.0002 23.9966 42.0002 23.9966" stroke="currentColor" stroke-width="4" stroke-linecap="round" stroke-linejoin="round"/>
    <path d="M26.9999 11.9947C26.9999 11.9947 26.9999 19.9947 20 27.9947C13.0001 35.9947 6.3255 37.6943 4.00043 34.9947C1.67536 32.2951 4.00042 24.9947 11.0001 17.9947C17.9997 10.9947 26.9999 11.9947 26.9999 11.9947Z" fill="#FE7BCF" stroke="currentColor" stroke-width="4" stroke-linecap="round" stroke-linejoin="round"/>
    <circle cx="27.2432" cy="27.4062" r="2.5" fill="currentColor"/>
    <circle cx="26.2432" cy="34.4062" r="2.5" fill="currentColor"/>
  </symbol>

  <symbol id="icon-whirlwind" viewBox="0 0 48 48" fill="none">
    <path d="M24 29C26.7614 29 29 26.7614 29 24C29 21.2386 26.7614 19 24 19C21.2386 19 19 21.2386 19 24C19 26.7614 21.2386 29 24 29Z" fill="#FE7BCF" stroke="currentColor" stroke-width="4" stroke-linecap="round" stroke-linejoin="round"/>
    <path d="M23.5 44C16.5964 44 11 38.4036 11 31.5C11 24.5964 16.5964 19 23.5 19" stroke="currentColor" stroke-width="4" stroke-linecap="round" stroke-linejoin="round"/>
    <path d="M44 23.5C44 30.4036 38.4036 36 31.5 36C24.5964 36 19 30.4036 19 23.5" stroke="currentColor" stroke-width="4" stroke-linecap="round" stroke-linejoin="round"/>
    <path d="M23.5 29C30.4036 29 36 23.4036 36 16.5C36 9.59644 30.4036 4 23.5 4" stroke="currentColor" stroke-width="4" stroke-linecap="round" stroke-linejoin="round"/>
    <path d="M29 23.5C29 16.5964 23.4036 11 16.5 11C9.59644 11 4 16.5964 4 23.5" stroke="currentColor" stroke-width="4" stroke-linecap="round" stroke-linejoin="round"/>
  </symbol>

  <symbol id="icon-menu" viewBox="0 0 48 48">
    <path d="M7.5 13C7.5 12.6022 7.65804 12.2206 7.93934 11.9393C8.22064 11.658 8.60218 11.5 9 11.5H39C39.3978 11.5 39.7794 11.658 40.0607 11.9393C40.342 12.2206 40.5 12.6022 40.5 13C40.5 13.3978 40.342 13.7794 40.0607 14.0607C39.7794 14.342 39.3978 14.5 39 14.5H9C8.60218 14.5 8.22064 14.342 7.93934 14.0607C7.65804 13.7794 7.5 13.3978 7.5 13ZM7.5 24C7.5 23.6022 7.65804 23.2206 7.93934 22.9393C8.22064 22.658 8.60218 22.5 9 22.5H39C39.3978 22.5 39.7794 22.658 40.0607 22.9393C40.342 23.2206 40.5 23.6022 40.5 24C40.5 24.3978 40.342 24.7794 40.0607 25.0607C39.7794 25.342 39.3978 25.5 39 25.5H9C8.60218 25.5 8.22064 25.342 7.93934 25.0607C7.65804 24.7794 7.5 24.3978 7.5 24ZM7.5 35C7.5 34.6022 7.65804 34.2206 7.93934 33.9393C8.22064 33.658 8.60218 33.5 9 33.5H39C39.3978 33.5 39.7794 33.658 40.0607 33.9393C40.342 34.2206 40.5 34.6022 40.5 35C40.5 35.3978 40.342 35.7794 40.0607 36.0607C39.7794 36.342 39.3978 36.5 39 36.5H9C8.60218 36.5 8.22064 36.342 7.93934 36.0607C7.65804 35.7794 7.5 35.3978 7.5 35Z" fill="currentColor"/>
  </symbol>

  <symbol id="icon-play-back" viewBox="0 0 48 48" fill="none">
    <g transform="scale(0.8)">
      <path d="M20.9298 31.9425L37.8523 47.1775C38.0385 47.3403 38.2673 47.4464 38.5119 47.4833C38.7564 47.5201 39.0064 47.4862 39.2323 47.3855C39.4582 47.2848 39.6505 47.1215 39.7865 46.915C39.9225 46.7084 39.9965 46.4672 39.9998 46.22V13.78C39.997 13.5322 39.9231 13.2905 39.7869 13.0834C39.6508 12.8764 39.4581 12.7128 39.2318 12.612C39.0054 12.5112 38.7549 12.4775 38.51 12.5148C38.265 12.5521 38.0359 12.6588 37.8498 12.8225L20.8248 28.0575C20.5557 28.3079 20.3429 28.6127 20.2007 28.9517C20.0585 29.2908 19.99 29.6562 20 30.0237C20.0099 30.3912 20.098 30.7523 20.2583 31.0832C20.4186 31.414 20.6475 31.7069 20.9298 31.9425Z" stroke="currentColor" stroke-width="3" stroke-linecap="round" stroke-linejoin="round"/>
    </g>
  </symbol>

  <symbol id="icon-play" viewBox="0 0 48 48" fill="none">
    <g transform="scale(0.8)">
      <path d="M37.2554 31.554L23.7174 43.742C23.5684 43.8722 23.3853 43.9571 23.1897 43.9866C22.9941 44.0161 22.7941 43.989 22.6134 43.9084C22.4327 43.8278 22.2788 43.6972 22.17 43.532C22.0612 43.3667 22.002 43.1738 21.9994 42.976V17.024C22.0017 16.8258 22.0608 16.6324 22.1697 16.4668C22.2786 16.3011 22.4327 16.1703 22.6138 16.0896C22.7949 16.009 22.9953 15.982 23.1913 16.0118C23.3872 16.0416 23.5705 16.1271 23.7194 16.258L37.3394 28.446C37.5547 28.6463 37.7249 28.8902 37.8387 29.1614C37.9525 29.4326 38.0072 29.7249 37.9992 30.0189C37.9913 30.3129 37.9209 30.6019 37.7926 30.8665C37.6643 31.1312 37.4812 31.3656 37.2554 31.554Z" stroke="currentColor" stroke-width="3" stroke-linecap="round" stroke-linejoin="round"/>
    </g>
  </symbol>

  <symbol id="icon-plus-circle" viewBox="0 0 24 24">
    <path d="M13 8C13 7.73478 12.8946 7.48043 12.7071 7.29289C12.5196 7.10536 12.2652 7 12 7C11.7348 7 11.4804 7.10536 11.2929 7.29289C11.1054 7.48043 11 7.73478 11 8V16C11 16.2652 11.1054 16.5196 11.2929 16.7071C11.4804 16.8946 11.7348 17 12 17C12.2652 17 12.5196 16.8946 12.7071 16.7071C12.8946 16.5196 13 16.2652 13 16V8Z" fill="currentColor"/>
    <path d="M8 11C7.73478 11 7.48043 11.1054 7.29289 11.2929C7.10536 11.4804 7 11.7348 7 12C7 12.2652 7.10536 12.5196 7.29289 12.7071C7.48043 12.8946 7.73478 13 8 13H16C16.2652 13 16.5196 12.8946 16.7071 12.7071C16.8946 12.5196 17 12.2652 17 12C17 11.7348 16.8946 11.4804 16.7071 11.2929C16.5196 11.1054 16.2652 11 16 11H8Z" fill="currentColor"/>
    <path fill-rule="evenodd" clip-rule="evenodd" d="M23 12C23 18.075 18.075 23 12 23C5.925 23 1 18.075 1 12C1 5.925 5.925 1 12 1C18.075 1 23 5.925 23 12ZM21 12C21 13.1819 20.7672 14.3522 20.3149 15.4442C19.8626 16.5361 19.1997 17.5282 18.364 18.364C17.5282 19.1997 16.5361 19.8626 15.4442 20.3149C14.3522 20.7672 13.1819 21 12 21C10.8181 21 9.64778 20.7672 8.55585 20.3149C7.46392 19.8626 6.47177 19.1997 5.63604 18.364C4.80031 17.5282 4.13738 16.5361 3.68508 15.4442C3.23279 14.3522 3 13.1819 3 12C3 9.61305 3.94821 7.32387 5.63604 5.63604C7.32387 3.94821 9.61305 3 12 3C14.3869 3 16.6761 3.94821 18.364 5.63604C20.0518 7.32387 21 9.61305 21 12Z" fill="currentColor"/>
  </symbol>

  <symbol id="icon-plus" viewBox="0 0 48 48">
    <path d="M38 22H26V10C26 9.46957 25.7893 8.96086 25.4142 8.58579C25.0391 8.21071 24.5304 8 24 8C23.4696 8 22.9609 8.21071 22.5858 8.58579C22.2107 8.96086 22 9.46957 22 10V22H10C9.46957 22 8.96086 22.2107 8.58579 22.5858C8.21071 22.9609 8 23.4696 8 24C8 24.5304 8.21071 25.0391 8.58579 25.4142C8.96086 25.7893 9.46957 26 10 26H22V38C22 38.5304 22.2107 39.0391 22.5858 39.4142C22.9609 39.7893 23.4696 40 24 40C24.5304 40 25.0391 39.7893 25.4142 39.4142C25.7893 39.0391 26 38.5304 26 38V26H38C38.5304 26 39.0391 25.7893 39.4142 25.4142C39.7893 25.0391 40 24.5304 40 24C40 23.4696 39.7893 22.9609 39.4142 22.5858C39.0391 22.2107 38.5304 22 38 22Z" fill="currentColor"/>
  </symbol>

  <symbol id="icon-remove" viewBox="0 0 48 48">
    <path d="M16 22C15.4696 22 14.9609 22.2107 14.5858 22.5858C14.2107 22.9609 14 23.4696 14 24C14 24.5304 14.2107 25.0391 14.5858 25.4142C14.9609 25.7893 15.4696 26 16 26H32C32.5304 26 33.0391 25.7893 33.4142 25.4142C33.7893 25.0391 34 24.5304 34 24C34 23.4696 33.7893 22.9609 33.4142 22.5858C33.0391 22.2107 32.5304 22 32 22H16Z" fill="currentColor"/>
    <path fill-rule="evenodd" clip-rule="evenodd" d="M46 24C46 36.15 36.15 46 24 46C11.85 46 2 36.15 2 24C2 11.85 11.85 2 24 2C36.15 2 46 11.85 46 24ZM42 24C42 26.3638 41.5344 28.7044 40.6298 30.8883C39.7253 33.0722 38.3994 35.0565 36.7279 36.7279C35.0565 38.3994 33.0722 39.7253 30.8883 40.6298C28.7044 41.5344 26.3638 42 24 42C21.6362 42 19.2956 41.5344 17.1117 40.6298C14.9278 39.7253 12.9435 38.3994 11.2721 36.7279C9.60062 35.0565 8.27475 33.0722 7.37017 30.8883C6.46558 28.7044 6 26.3638 6 24C6 19.2261 7.89642 14.6477 11.2721 11.2721C14.6477 7.89642 19.2261 6 24 6C28.7739 6 33.3523 7.89642 36.7279 11.2721C40.1036 14.6477 42 19.2261 42 24Z" fill="currentColor"/>
  </symbol>

  <symbol id="icon-x" viewBox="0 0 48 48" fill="none">
    <path d="M38 8L26.14 21.86M26.14 21.86L39.572 37.13C40.6 38.3 39.658 40 37.986 40H35.038C34.416 40 33.83 39.746 33.45 39.314L21.86 26.14M26.14 21.86L14.55 8.686C14.17 8.254 13.582 8 12.962 8H10.014C8.33997 8 7.39997 9.7 8.42797 10.87L21.86 26.14M9.99997 40L21.86 26.14" stroke="currentColor" stroke-width="3" stroke-linecap="round" stroke-linejoin="round"/>
  </symbol>

  <symbol id="icon-trending-down" viewBox="0 0 48 48" fill="none">
    <path d="M29 34.9999H41V23" stroke="currentColor" stroke-width="4" stroke-linecap="round" stroke-linejoin="round"/>
    <path d="M6 13L16.3385 25.5L26.1846 19.5L41 35" stroke="currentColor" stroke-width="4" stroke-linecap="round" stroke-linejoin="round"/>
  </symbol>

  <symbol id="icon-search" viewBox="0 0 48 48">
    <path fill-rule="evenodd" clip-rule="evenodd" d="M22 34C23.5759 34 25.1363 33.6896 26.5922 33.0866C28.0481 32.4835 29.371 31.5996 30.4853 30.4853C31.5996 29.371 32.4835 28.0481 33.0866 26.5922C33.6896 25.1363 34 23.5759 34 22C34 20.4241 33.6896 18.8637 33.0866 17.4078C32.4835 15.9519 31.5996 14.629 30.4853 13.5147C29.371 12.4004 28.0481 11.5165 26.5922 10.9134C25.1363 10.3104 23.5759 10 22 10C18.8174 10 15.7652 11.2643 13.5147 13.5147C11.2643 15.7652 10 18.8174 10 22C10 25.1826 11.2643 28.2348 13.5147 30.4853C15.7652 32.7357 18.8174 34 22 34ZM22 38C26.2435 38 30.3131 36.3143 33.3137 33.3137C36.3143 30.3131 38 26.2435 38 22C38 17.7565 36.3143 13.6869 33.3137 10.6863C30.3131 7.68571 26.2435 6 22 6C17.7565 6 13.6869 7.68571 10.6863 10.6863C7.68571 13.6869 6 17.7565 6 22C6 26.2435 7.68571 30.3131 10.6863 33.3137C13.6869 36.3143 17.7565 38 22 38Z" fill="currentColor"/>
    <path fill-rule="evenodd" clip-rule="evenodd" d="M30.6404 30.5806C31.0167 30.207 31.5261 29.9981 32.0564 30C32.5868 30.0019 33.0946 30.2143 33.4684 30.5906L41.4184 38.5906C41.7818 38.9688 41.982 39.4746 41.9761 39.9991C41.9701 40.5235 41.7583 41.0247 41.3864 41.3945C41.0145 41.7643 40.5122 41.9732 39.9877 41.9762C39.4632 41.9793 38.9585 41.7761 38.5824 41.4106L30.6324 33.4106C30.2585 33.0345 30.0493 32.5253 30.0508 31.9949C30.0523 31.4646 30.2644 30.9566 30.6404 30.5826V30.5806Z" fill="currentColor"/>
  </symbol>
</svg>
